<?xml version="1.0" encoding="UTF-8" standalone="no"?>
<!-- Created with Inkscape (http://www.inkscape.org/) -->

<svg
   xmlns:dc="http://purl.org/dc/elements/1.1/"
   xmlns:cc="http://creativecommons.org/ns#"
   xmlns:rdf="http://www.w3.org/1999/02/22-rdf-syntax-ns#"
   xmlns:svg="http://www.w3.org/2000/svg"
   xmlns="http://www.w3.org/2000/svg"
   xmlns:sodipodi="http://sodipodi.sourceforge.net/DTD/sodipodi-0.dtd"
   xmlns:inkscape="http://www.inkscape.org/namespaces/inkscape"
   width="210mm"
   height="297mm"
   viewBox="0 0 210 297"
   version="1.1"
   id="svg8"
   inkscape:version="0.92.1 r15371"
   sodipodi:docname="retroLetterA.svg">
  <sodipodi:namedview
     id="base"
     pagecolor="#ffffff"
     bordercolor="#666666"
     borderopacity="1.0"
     inkscape:pageopacity="0.0"
     inkscape:pageshadow="2"
     inkscape:zoom="0.5"
     inkscape:cx="39.219851"
     inkscape:cy="793.08919"
     inkscape:document-units="mm"
     inkscape:current-layer="layer1"
     showgrid="false"
     showborder="false"
     inkscape:object-nodes="false"
     inkscape:window-width="1378"
     inkscape:window-height="1231"
     inkscape:window-x="1148"
     inkscape:window-y="0"
     inkscape:window-maximized="0" />
  <defs
     id="defs2" />
  <metadata
     id="metadata5">
    <rdf:RDF>
      <cc:Work
         rdf:about="">
        <dc:format>image/svg+xml</dc:format>
        <dc:type
           rdf:resource="http://purl.org/dc/dcmitype/StillImage" />
        <dc:title></dc:title>
      </cc:Work>
    </rdf:RDF>
  </metadata>
  <g
     id="layer1"
     inkscape:groupmode="layer"
     inkscape:label="Layer 1">
    <g
       id="g4690">
      <path
         inkscape:connector-curvature="0"
         style="color:#000000;font-style:normal;font-variant:normal;font-weight:normal;font-stretch:normal;font-size:159.71051025px;line-height:1.25;font-family:'Berlin Sans FB';-inkscape-font-specification:'Berlin Sans FB, Normal';font-variant-ligatures:normal;font-variant-position:normal;font-variant-caps:normal;font-variant-numeric:normal;font-variant-alternates:normal;font-feature-settings:normal;text-indent:0;text-align:start;text-decoration:none;text-decoration-line:none;text-decoration-style:solid;text-decoration-color:#000000;letter-spacing:0px;word-spacing:0px;text-transform:none;writing-mode:lr-tb;direction:ltr;text-orientation:mixed;dominant-baseline:auto;baseline-shift:baseline;text-anchor:start;white-space:normal;shape-padding:0;clip-rule:nonzero;display:inline;overflow:visible;visibility:visible;opacity:1;isolation:auto;mix-blend-mode:normal;color-interpolation:sRGB;color-interpolation-filters:linearRGB;solid-color:#000000;solid-opacity:1;vector-effect:none;fill:#103a45;fill-opacity:1;fill-rule:nonzero;stroke:none;stroke-width:6.08541679;stroke-linecap:butt;stroke-linejoin:miter;stroke-miterlimit:4;stroke-dasharray:none;stroke-dashoffset:0;stroke-opacity:1;color-rendering:auto;image-rendering:auto;shape-rendering:auto;text-rendering:auto;enable-background:accumulate"
         d="m 58.626604,-8.6321812 c -1.415764,0.3793494 -2.916858,0.9940401 -4.822346,1.8335574 l -5.01e-4,-0.00147 c -1.673047,0.6973452 -2.965556,1.1423642 -3.311899,1.2351668 -0.437136,0.1171329 -1.757481,0.371205 -3.481113,0.5834103 -1.97223,0.2428066 -3.542081,0.4916803 -4.955622,0.8704353 -2.805282,0.7516722 -4.650029,3.16453864 -5.551614,4.81842186 C 35.749009,2.091423 35.297732,3.437442 34.932168,4.7411923 32.547277,12.248492 30.658482,17.884253 29.337128,21.475397 l -0.002,0.0054 -0.04342,0.118634 -0.02495,0.07784 C 21.418473,44.46159 16.752966,58.127109 15.120166,63.133492 l -0.03145,0.0844 -18.4927311,59.162822 c -0.35169,1.04383 -0.6473471,1.9735 -0.8780168,2.82998 -0.1868518,0.6938 -0.5121335,1.86419 -0.5121342,3.19793 6e-7,1.36767 0.2780182,2.54222 0.9339358,3.46849 l -0.1647216,0.32501 0.6399178,0.23673 c 0.3587954,0.35536 0.79185,0.66211 1.3122815,0.9131 0.8064649,0.38898 1.66177013,0.49702 2.44237095,0.47548 l 7.40897195,2.73984 0.096829,-0.0666 c 0.3188696,0.2796 0.6881069,0.52624 1.1186094,0.73387 1.5357154,0.74071 3.2549564,0.47549 4.2792644,0.20103 l 16.94884,-4.5409 c 2.923781,-0.78343 4.881719,-3.7679 5.410854,-4.71757 0.712662,-1.27904 1.20361,-2.5424 1.66768,-3.87884 0.944702,-2.7191 1.863942,-6.16834 2.895103,-10.61321 l -4.9e-4,-9e-4 c 0.975456,-4.11176 1.943258,-7.21517 2.605095,-8.81122 0.0054,-0.013 0.0042,-0.006 0.0095,-0.0191 1.653012,-0.49148 5.295715,-1.53723 12.043634,-3.34533 l 11.902374,-3.189226 c 1.654606,-0.443341 3.093821,-0.824846 4.411531,-1.171403 0.129034,0.416764 0.258298,0.849534 0.386847,1.300696 l -0.005,-0.02381 0.03146,0.10659 c 1.147016,3.911581 2.192382,6.889691 3.328371,9.138761 0.395063,0.78218 0.82029,1.52694 1.345725,2.20632 l -0.123789,0.79821 1.450546,0.53365 c 0.69466,0.51924 1.685852,1.024 2.950012,1.0847 l 8.772667,3.22668 c 0.986406,0.54442 2.352616,0.91361 4.040666,0.4613 1.234106,-0.33068 2.75104,-0.83042 4.727508,-1.52727 1.83384,-0.64654 3.210147,-1.08485 3.860967,-1.25924 0.50995,-0.13664 1.68267,-0.36887 2.87714,-0.59759 l 0.0759,0.0406 0.92843,-0.24877 c 1.82297,-0.33285 3.29378,-0.63166 4.47942,-0.94935 0.91348,-0.24477 2.37078,-0.72635 3.81406,-1.88652 1.13182,-0.90981 1.83133,-1.926 2.42089,-3.05294 0.58956,-1.12695 1.06822,-2.39033 1.0682,-3.87602 -10e-6,-0.41838 -7e-4,-0.74082 -0.10382,-1.20588 -0.10308,-0.46507 -0.21945,-0.82671 -0.0649,-0.20304 -0.0377,-0.15228 -0.0806,-0.29309 -0.094,-0.3354 -0.0456,-0.14696 -0.0888,-0.27239 -0.1268,-0.3801 l 4.9e-4,-6.8e-4 c -0.0799,-0.22727 -0.17831,-0.49237 -0.30404,-0.824809 -0.25056,-0.662741 -0.60924,-1.584901 -1.08516,-2.796146 -0.95228,-2.423645 -2.37078,-5.988842 -4.26229,-10.708572 -3.77914,-9.429833 -9.44658,-23.477377 -16.994259,-42.122469 l -0.008,-0.02031 -5.03e-4,-0.0026 c -0.0022,-0.0056 -0.0035,-0.0073 -0.0055,-0.01404 C 83.851996,17.433273 78.056636,3.138252 76.628166,-0.05141585 l -0.0075,-0.01564081 C 76.153249,-1.1004737 75.68681,-2.0162563 75.056822,-2.8467582 c -0.288912,-0.380895 -0.753118,-0.9230789 -1.407121,-1.350993 -0.639209,-0.4182285 -2.0827,-1.053886 -3.956311,-0.551846 l -5.727314,-2.0091697 c -0.29019,-0.3791735 -0.744705,-0.9038266 -1.383162,-1.3215682 -0.639152,-0.4181901 -2.082445,-1.0537705 -3.955812,-0.5519796 -1.69e-4,4.52e-5 -3.29e-4,8.82e-5 -4.98e-4,1.335e-4 z"
         id="path4539" />
      <path
         style="color:#000000;font-style:normal;font-variant:normal;font-weight:normal;font-stretch:normal;font-size:159.71051025px;line-height:1.25;font-family:'Berlin Sans FB';-inkscape-font-specification:'Berlin Sans FB, Normal';font-variant-ligatures:normal;font-variant-position:normal;font-variant-caps:normal;font-variant-numeric:normal;font-variant-alternates:normal;font-feature-settings:normal;text-indent:0;text-align:start;text-decoration:none;text-decoration-line:none;text-decoration-style:solid;text-decoration-color:#000000;letter-spacing:0px;word-spacing:0px;text-transform:none;writing-mode:lr-tb;direction:ltr;text-orientation:mixed;dominant-baseline:auto;baseline-shift:baseline;text-anchor:start;white-space:normal;shape-padding:0;clip-rule:nonzero;display:inline;overflow:visible;visibility:visible;opacity:1;isolation:auto;mix-blend-mode:normal;color-interpolation:sRGB;color-interpolation-filters:linearRGB;solid-color:#000000;solid-opacity:1;vector-effect:none;fill:#fff0b4;fill-opacity:1;fill-rule:nonzero;stroke:none;stroke-width:5.29166651;stroke-linecap:butt;stroke-linejoin:miter;stroke-miterlimit:4;stroke-dasharray:none;stroke-dashoffset:0;stroke-opacity:1;color-rendering:auto;image-rendering:auto;shape-rendering:auto;text-rendering:auto;enable-background:accumulate"
         d="m 58.626774,-5.4821459 c -1.154366,0.3093074 -2.557831,0.8718322 -4.476933,1.7196038 l 0.05838,-0.025778 c -1.750346,0.7295641 -3.048937,1.1946723 -3.716218,1.3734699 -0.729952,0.1955886 -2.074426,0.4389131 -3.874946,0.6605793 -1.915584,0.2358321 -3.383469,0.4775303 -4.561789,0.79326754 -1.507662,0.40397339 -2.558363,1.75566879 -3.126213,2.79734526 -0.548141,1.005532 -0.899966,2.0327695 -1.233412,3.2365781 -2.399338,7.5536106 -4.298672,13.2277816 -5.665916,16.9436456 l -0.01296,0.03562 -0.01144,0.03568 C 24.119733,44.980138 19.410915,58.774841 17.82377,63.644922 l -0.0074,0.02019 -18.45978592,59.057695 c -0.35099657,1.03845 -0.63075328,1.92406 -0.83209348,2.67163 -0.2076651,0.77107 -0.3793583,1.31839 -0.3793578,2.22665 -7e-7,1.02894 0.5611835,2.261 1.468018,2.69837 0.90683323,0.43738 1.7937748,0.29777 2.5941129,0.0833 l 16.9488453,-4.54143 c 1.737966,-0.46568 2.481643,-1.79229 3.005416,-2.73234 0.523777,-0.94004 0.924688,-1.9449 1.354211,-3.18121 0.857619,-2.46847 1.760201,-5.82544 2.777304,-10.21143 1.005238,-4.23738 1.982613,-7.44863 2.812744,-9.45053 0.415062,-1.000942 0.801766,-1.692054 1.011293,-1.98937 0.01048,-0.01482 0.01106,-0.01501 0.01996,-0.02729 1.236187,-0.389491 6.055764,-1.758527 13.649925,-3.793372 l 11.902368,-3.189234 c 7.823032,-2.096172 12.735909,-3.351712 14.400655,-3.701352 l 0.01112,-0.0029 0.01347,-0.0015 c -0.286567,0.06312 0.323584,-0.0065 1.246888,1.477921 0.923318,1.4844 1.987075,4.125911 3.03537,7.816662 l 0.0036,0.0094 0.0022,0.0098 c 1.125154,3.837063 2.144955,6.700463 3.159665,8.709433 0.507349,1.00448 0.998238,1.80169 1.637726,2.4389 0.639484,0.6372 1.578743,1.30768 3.078796,0.90574 1.088643,-0.2917 2.554316,-0.77108 4.495897,-1.45558 1.874958,-0.66104 3.272455,-1.11119 4.092083,-1.33079 0.819629,-0.21962 2.160608,-0.5044 3.931352,-0.82069 l 0.0024,0.001 0.0044,-9.9e-4 c 1.893177,-0.34276 3.335382,-0.6428 4.424019,-0.9345 0.815599,-0.21854 1.588909,-0.46944 2.499779,-1.20159 0.91087,-0.73219 1.86384,-2.44022 1.86384,-3.676215 0,-0.619344 -0.0598,-0.584563 -0.0813,-0.671562 -0.0215,-0.08699 -0.0377,-0.13852 -0.053,-0.188027 -0.0305,-0.09909 -0.0593,-0.182303 -0.0944,-0.281797 -0.07,-0.199059 -0.16167,-0.448512 -0.28302,-0.76946 -0.24271,-0.641905 -0.59904,-1.558916 -1.07319,-2.765644 C 101.0593,92.439692 99.64166,88.877568 97.75129,84.160659 93.97096,74.727016 88.302829,60.676506 80.745614,42.007947 l -0.0012,-0.0037 C 70.047622,15.43005 64.173707,0.96362595 62.860117,-1.9695162 l -0.0018,-0.00422 -0.0017,-0.00298 c -0.436337,-0.964677 -0.828591,-1.713095 -1.301751,-2.3368605 -0.236576,-0.311893 -0.486248,-0.6024403 -0.888495,-0.8656235 -0.402246,-0.263195 -1.051005,-0.5679551 -2.039552,-0.3030744 z M 49.988381,31.932905 c 1.787233,3.804606 3.554559,7.529333 6.78403,15.575943 l 2.1e-5,0.0015 -3.4e-5,0.0022 c 2.253225,5.59475 3.941286,9.978657 5.051966,13.120055 0.555332,1.570697 0.966119,2.833625 1.226417,3.749635 0.165115,0.581058 0.165887,0.641121 0.20765,0.86081 -0.164346,0.137729 -0.252317,0.243009 -0.705805,0.500484 -1.369621,0.7776 -3.918096,1.75711 -7.389508,2.687274 l -7.759381,2.079116 c -2.355699,0.631209 -4.146286,1.104161 -5.359939,1.416397 -0.606827,0.156387 -1.070962,0.271569 -1.375176,0.343869 -0.111599,0.0268 -0.172617,0.03921 -0.234104,0.05258 -0.0015,3.35e-4 -0.0041,0.0011 -0.0054,0.0014 l -0.205654,0.03692 c -1.706669,0.312881 -2.847345,0.265383 -3.280951,0.141372 0.02061,-0.147998 -0.0012,0.05502 0.04892,-0.140971 0.143871,-0.562242 0.378519,-1.400024 0.696322,-2.477421 0.635604,-2.154789 1.606646,-5.275617 2.901592,-9.330425 2.08421,-6.526182 5.627039,-17.244924 9.39911,-28.620832 z"
         id="path4503"
         inkscape:connector-curvature="0" />
      <path
         inkscape:connector-curvature="0"
         id="path4489"
         d="M 39.760003,6.4210731 C 39.627453,6.8367286 39.50454,7.2160793 39.375154,7.6198606 L 61.359982,1.7290436 C 61.193911,1.3331575 61.06935,1.0419079 60.942688,0.74518986 Z M 36.058762,17.705029 c -0.247218,0.72347 -0.483355,1.404018 -0.710798,2.053306 l 30.103601,-8.066236 c -0.272339,-0.668904 -0.436414,-1.065042 -0.686839,-1.67881 z m -4.236337,12.194513 c -0.333577,0.969839 -0.676105,1.966172 -0.995818,2.896324 l 17.946159,-4.808659 c 0.327887,-0.985943 0.619808,-1.868368 0.958877,-2.886425 z m 18.269609,-4.895327 c 0.342526,0.641116 0.734738,1.430216 1.160537,2.31853 l 18.524178,-4.963538 c -0.344618,-0.851882 -0.63537,-1.568248 -0.960874,-2.37203 z M 27.350486,42.923833 c -0.437652,1.277572 -0.880631,2.570793 -1.280335,3.73974 l 18.126352,-4.856942 c 0.400631,-1.216026 0.80433,-2.439819 1.22942,-3.726096 z m 27.556407,-7.383717 c 0.409135,0.966652 0.833953,1.97962 1.279337,3.053878 L 74.364992,33.723009 C 73.959255,32.716795 73.517008,31.618893 73.129081,30.657496 Z M 22.623479,56.783649 c -0.57108,1.687161 -1.142366,3.375181 -1.543889,4.577007 L 39.415588,56.44754 c 0.467335,-1.448569 0.943906,-2.924235 1.476004,-4.558817 z m 36.93355,-9.896315 c 0.530873,1.324146 1.0301,2.580885 1.494474,3.76288 l 18.176766,-4.87045 C 78.905784,44.982951 78.692408,44.453381 78.362733,43.638986 78.118475,43.032133 77.95064,42.617303 77.711334,42.022903 Z M 17.888485,71.412254 16.20633,76.793488 34.64665,71.85242 c 0.310512,-1.165683 0.836997,-2.951564 1.577832,-5.353282 z M 64.207168,59.0012 c 0.696004,1.964534 1.180648,3.477345 1.455041,4.540626 L 84.380556,58.52626 C 83.799415,57.088078 83.194783,55.591616 82.582598,54.077518 Z M 13.068635,86.830772 6.0599858,109.2525 25.29646,104.0981 c 1.51549,-5.110294 2.959107,-7.915854 4.330178,-8.405691 1.155006,-0.417129 5.87515,-1.735274 14.161056,-3.955476 l 11.901875,-3.189098 c 7.83395,-2.099101 12.679868,-3.344171 14.53792,-3.734391 1.717266,-0.378343 3.405662,1.588766 5.064936,5.888275 l 19.90634,-5.333887 C 93.226842,80.44861 90.711722,74.200622 87.734885,66.824011 Z"
         style="font-style:normal;font-variant:normal;font-weight:normal;font-stretch:normal;font-size:159.71051025px;line-height:1.25;font-family:'Berlin Sans FB';-inkscape-font-specification:'Berlin Sans FB, Normal';font-variant-ligatures:normal;font-variant-caps:normal;font-variant-numeric:normal;font-feature-settings:normal;text-align:start;letter-spacing:0px;word-spacing:0px;writing-mode:lr-tb;text-anchor:start;opacity:1;fill:#cf5a5a;fill-opacity:1;stroke:none;stroke-width:3.99276257" />
    </g>
    <path
       inkscape:connector-curvature="0"
       style="color:#000000;font-style:normal;font-variant:normal;font-weight:normal;font-stretch:normal;font-size:159.71051025px;line-height:1.25;font-family:'Berlin Sans FB';-inkscape-font-specification:'Berlin Sans FB, Normal';font-variant-ligatures:normal;font-variant-position:normal;font-variant-caps:normal;font-variant-numeric:normal;font-variant-alternates:normal;font-feature-settings:normal;text-indent:0;text-align:start;text-decoration:none;text-decoration-line:none;text-decoration-style:solid;text-decoration-color:#000000;letter-spacing:0px;word-spacing:0px;text-transform:none;writing-mode:lr-tb;direction:ltr;text-orientation:mixed;dominant-baseline:auto;baseline-shift:baseline;text-anchor:start;white-space:normal;shape-padding:0;clip-rule:nonzero;display:inline;overflow:visible;visibility:visible;opacity:1;isolation:auto;mix-blend-mode:normal;color-interpolation:sRGB;color-interpolation-filters:linearRGB;solid-color:#000000;solid-opacity:1;vector-effect:none;fill:#103a45;fill-opacity:1;fill-rule:nonzero;stroke:none;stroke-width:6.08541679;stroke-linecap:butt;stroke-linejoin:miter;stroke-miterlimit:4;stroke-dasharray:none;stroke-dashoffset:0;stroke-opacity:1;color-rendering:auto;image-rendering:auto;shape-rendering:auto;text-rendering:auto;enable-background:accumulate"
       d="m -76.046313,-8.6321812 c -1.415764,0.3793494 -2.916858,0.9940401 -4.822346,1.8335574 l -5.01e-4,-0.00147 c -1.673047,0.6973452 -2.965556,1.1423642 -3.311899,1.2351668 -0.437136,0.1171329 -1.757481,0.371205 -3.481113,0.5834103 -1.97223,0.2428066 -3.542081,0.4916803 -4.955622,0.8704353 -2.805282,0.7516722 -4.650029,3.16453864 -5.551614,4.81842186 -0.7545,1.38408254 -1.205777,2.73010154 -1.571341,4.03385184 -2.384891,7.5072997 -4.273691,13.1430607 -5.595041,16.7342047 l -0.002,0.0054 -0.0434,0.118634 -0.025,0.07784 c -7.84828,22.784319 -12.51379,36.449838 -14.14659,41.456221 l -0.0314,0.0844 -18.49273,59.162818 c -0.35169,1.04383 -0.64735,1.9735 -0.87802,2.82998 -0.18685,0.6938 -0.51213,1.86419 -0.51213,3.19793 0,1.36767 0.27802,2.54222 0.93393,3.46849 l -0.16472,0.32501 0.63992,0.23673 c 0.35879,0.35536 0.79185,0.66211 1.31228,0.9131 0.80647,0.38898 1.66177,0.49702 2.44237,0.47548 l 7.40897,2.73984 0.0968,-0.0666 c 0.31887,0.2796 0.68811,0.52624 1.11861,0.73387 1.53572,0.74071 3.25496,0.47549 4.27927,0.20103 l 16.94884,-4.5409 c 2.92378,-0.78343 4.881716,-3.7679 5.410851,-4.71757 0.712662,-1.27904 1.20361,-2.5424 1.66768,-3.87884 0.944702,-2.7191 1.863942,-6.16834 2.895103,-10.61321 l -4.9e-4,-9e-4 c 0.975456,-4.11176 1.943258,-7.21517 2.605095,-8.81122 0.0054,-0.013 0.0042,-0.006 0.0095,-0.0191 1.653012,-0.49148 5.295715,-1.53723 12.043634,-3.34533 l 11.902374,-3.189222 c 1.654606,-0.443341 3.093821,-0.824846 4.411531,-1.171403 0.129034,0.416764 0.258298,0.849534 0.386847,1.300696 l -0.005,-0.02381 0.03146,0.10659 c 1.147016,3.911579 2.192382,6.889689 3.328371,9.138759 0.395063,0.78218 0.82029,1.52694 1.345725,2.20632 l -0.123789,0.79821 1.450546,0.53365 c 0.69466,0.51924 1.685852,1.024 2.950012,1.0847 l 8.772667,3.22668 c 0.986406,0.54442 2.352616,0.91361 4.040666,0.4613 1.234106,-0.33068 2.75104,-0.83042 4.727508,-1.52727 1.83384,-0.64654 3.210147,-1.08485 3.860967,-1.25924 0.50995,-0.13664 1.68267,-0.36887 2.87714,-0.59759 l 0.0759,0.0406 0.92843,-0.24877 c 1.82297,-0.33285 3.29378,-0.63166 4.47942,-0.94935 0.91348,-0.24477 2.37078,-0.72635 3.81406,-1.88652 1.13182,-0.90981 1.83133,-1.926 2.42089,-3.05294 0.58956,-1.12695 1.06822,-2.39033 1.0682,-3.87602 -10e-6,-0.41838 -7e-4,-0.74082 -0.10382,-1.20588 -0.10308,-0.46507 -0.21945,-0.82671 -0.0649,-0.20304 -0.0377,-0.15228 -0.0806,-0.29309 -0.094,-0.3354 -0.0456,-0.14696 -0.0888,-0.27239 -0.1268,-0.3801 l 4.9e-4,-6.8e-4 c -0.0799,-0.22727 -0.17831,-0.49237 -0.30404,-0.824807 -0.25056,-0.662741 -0.60924,-1.584901 -1.08516,-2.796146 -0.95228,-2.423645 -2.37078,-5.988842 -4.26229,-10.708572 -3.77914,-9.429833 -9.44658,-23.477377 -16.994259,-42.122469 l -0.008,-0.02031 -5.03e-4,-0.0026 c -0.0022,-0.0056 -0.0035,-0.0073 -0.0055,-0.01404 C -50.820921,17.433273 -56.616281,3.138252 -58.044751,-0.05141585 l -0.0075,-0.01564081 c -0.467417,-1.03341704 -0.933856,-1.94919964 -1.563844,-2.77970154 -0.288912,-0.380895 -0.753118,-0.9230789 -1.407121,-1.350993 -0.639209,-0.4182285 -2.0827,-1.053886 -3.956311,-0.551846 l -5.727314,-2.0091697 c -0.29019,-0.3791735 -0.744705,-0.9038266 -1.383162,-1.3215682 -0.639152,-0.4181901 -2.082445,-1.0537705 -3.955812,-0.5519796 -1.69e-4,4.52e-5 -3.29e-4,8.82e-5 -4.98e-4,1.335e-4 z"
       id="path4685" />
  </g>
</svg>
