<?xml version="1.0" encoding="UTF-8" standalone="no"?>
<!-- Created with Inkscape (http://www.inkscape.org/) -->

<svg
   xmlns:dc="http://purl.org/dc/elements/1.1/"
   xmlns:cc="http://creativecommons.org/ns#"
   xmlns:rdf="http://www.w3.org/1999/02/22-rdf-syntax-ns#"
   xmlns:svg="http://www.w3.org/2000/svg"
   xmlns="http://www.w3.org/2000/svg"
   xmlns:sodipodi="http://sodipodi.sourceforge.net/DTD/sodipodi-0.dtd"
   xmlns:inkscape="http://www.inkscape.org/namespaces/inkscape"
   width="210mm"
   height="297mm"
   viewBox="0 0 210 297"
   version="1.1"
   id="svg4732"
   inkscape:version="0.92.1 r15371"
   sodipodi:docname="slimeballGraphic.svg">
  <defs
     id="defs4726" />
  <sodipodi:namedview
     id="base"
     pagecolor="#ffffff"
     bordercolor="#666666"
     borderopacity="1.0"
     inkscape:pageopacity="0.0"
     inkscape:pageshadow="2"
     inkscape:zoom="0.125"
     inkscape:cx="776.00001"
     inkscape:cy="880"
     inkscape:document-units="mm"
     inkscape:current-layer="layer1"
     showgrid="false"
     showborder="false"
     inkscape:object-nodes="false"
     inkscape:window-width="1363"
     inkscape:window-height="1225"
     inkscape:window-x="1149"
     inkscape:window-y="6"
     inkscape:window-maximized="0" />
  <metadata
     id="metadata4729">
    <rdf:RDF>
      <cc:Work
         rdf:about="">
        <dc:format>image/svg+xml</dc:format>
        <dc:type
           rdf:resource="http://purl.org/dc/dcmitype/StillImage" />
        <dc:title></dc:title>
      </cc:Work>
    </rdf:RDF>
  </metadata>
  <g
     inkscape:label="Layer 1"
     inkscape:groupmode="layer"
     id="layer1">
    <rect
       style="opacity:1;fill:#165044;fill-opacity:1;stroke:none;stroke-width:5.42715549;stroke-linecap:butt;stroke-miterlimit:4;stroke-dasharray:none"
       id="rect5421"
       width="1640.4166"
       height="1242.1106"
       x="-677.33331"
       y="-655.12726" />
    <path
       style="opacity:1;fill:#8ce78c;fill-opacity:1;stroke:none;stroke-width:6.7203784;stroke-linecap:butt;stroke-miterlimit:4;stroke-dasharray:none"
       d="m -382.95054,252.16852 c -7.83473,7.83473 -7.83473,20.44926 10e-6,28.284 7.83475,7.83474 20.44964,7.83511 28.28437,3.7e-4 l 96.62033,-96.62033 c 7.83475,-7.83475 7.83439,-20.44964 -3.6e-4,-28.28438 -7.83474,-7.83474 -20.44926,-7.83474 -28.28401,1e-5 z m 145.92917,-145.92916 c -7.83474,7.83474 -7.83474,20.44926 0,28.284 7.83475,7.83474 20.44963,7.83511 28.28437,3.7e-4 l 15.79803,-15.79803 c 7.83475,-7.83475 7.83438,-20.449631 -3.6e-4,-28.284373 -7.83474,-7.834744 -20.44926,-7.834746 -28.28401,-2e-6 z m 62.11344,-62.113442 c -7.83474,7.834742 -7.83474,20.449263 0,28.284007 7.83474,7.834736 20.44963,7.835107 28.28437,3.65e-4 l 8.2319,-8.231902 78.659826,-78.659823 c 7.834742,-7.834742 20.449262,-7.834742 28.284006,2e-6 7.834742,7.8347422 7.835107,20.4496274 3.65e-4,28.28437 l -86.891727,86.891723 c -7.83474,7.83474 -7.83474,20.44926 0,28.28401 7.83475,7.83474 20.449267,7.83474 28.28401,0 l 63.692729,-63.692732 c 7.834742,-7.834742 20.4496284,-7.834378 28.2843723,3.66e-4 7.8347401,7.83474 7.8347418,20.449263 -6e-7,28.284006 l -63.6927297,63.69273 c -7.834742,7.83474 -7.834742,20.44926 10e-7,28.284 7.834743,7.83475 20.449628,7.83511 28.28437,3.7e-4 L 53.405287,98.655686 c 7.834742,-7.834742 20.449268,-7.834736 28.284004,0 7.834744,7.834744 7.834745,20.449264 2e-6,28.284004 L -74.05106,282.68005 c -7.834742,7.83474 -7.834377,20.44962 3.66e-4,28.28437 7.834742,7.83474 20.449263,7.83474 28.284005,0 L 59.833902,205.36383 c 7.834744,-7.83475 20.449628,-7.83438 28.284372,3.6e-4 7.834742,7.83475 7.834743,20.44926 0,28.28401 l -36.751962,36.75196 c -7.834742,7.83474 -7.834742,20.44926 0,28.28401 7.834744,7.83474 20.44963,7.8351 28.284372,3.6e-4 l 8.231901,-8.2319 0.748355,0.74836 L 358.11536,20.219859 384.30777,-5.9725542 503.91479,-125.57957 c 0.51359,-0.5136 1.02276,-1.02975 1.52887,-1.54788 0.19226,-0.19681 0.38216,-0.39486 0.57332,-0.59232 0.30876,-0.31892 0.61708,-0.63824 0.92302,-0.95883 0.21169,-0.22183 0.42182,-0.44462 0.63216,-0.66724 0.30761,-0.32557 0.61427,-0.65165 0.91901,-0.97893 0.18096,-0.19434 0.36118,-0.38931 0.54117,-0.58429 0.32307,-0.34999 0.6445,-0.70085 0.9643,-1.05273 0.17719,-0.19497 0.3544,-0.38985 0.53057,-0.58538 0.31058,-0.34471 0.61884,-0.69089 0.92632,-1.0374 0.17903,-0.20177 0.35879,-0.40311 0.53677,-0.60548 0.37639,-0.42795 0.74981,-0.85747 1.12143,-1.28805 0.0943,-0.10923 0.18997,-0.21766 0.28394,-0.32705 0.47191,-0.54941 0.9393,-1.10128 1.40352,-1.65493 0.11125,-0.13268 0.22097,-0.2661 0.33179,-0.39902 0.34408,-0.41273 0.68663,-0.82628 1.02644,-1.2413 0.17136,-0.20929 0.34128,-0.41935 0.51156,-0.62923 0.27633,-0.34057 0.55199,-0.68142 0.82546,-1.0235 0.19871,-0.24855 0.39585,-0.49791 0.59305,-0.74725 0.23745,-0.30025 0.474,-0.60083 0.70927,-0.90221 0.20264,-0.25958 0.40482,-0.51936 0.60584,-0.77977 0.25321,-0.32804 0.50465,-0.65687 0.7553,-0.98624 0.17384,-0.22843 0.34809,-0.4568 0.5207,-0.68587 0.29325,-0.38917 0.58363,-0.77979 0.87333,-1.17076 0.13213,-0.17833 0.2658,-0.35589 0.39719,-0.53459 0.40998,-0.5576 0.81662,-1.11716 1.21937,-1.67833 0.13408,-0.18681 0.26574,-0.37478 0.39902,-0.56198 0.27614,-0.38788 0.55204,-0.77577 0.82473,-1.16529 0.17612,-0.25157 0.34967,-0.50451 0.52435,-0.75676 0.22336,-0.32253 0.44661,-0.64506 0.66761,-0.9687 0.18084,-0.26481 0.36006,-0.5303 0.53933,-0.79585 0.21503,-0.31852 0.42927,-0.63744 0.64204,-0.95701 0.18408,-0.2765 0.36751,-0.55327 0.54993,-0.83057 0.19844,-0.30167 0.39516,-0.604 0.59159,-0.90657 0.1875,-0.28879 0.37523,-0.5775 0.5609,-0.86711 0.19566,-0.30521 0.38921,-0.61145 0.58283,-0.91754 0.17723,-0.28017 0.35541,-0.5599 0.53093,-0.84081 0.24266,-0.38835 0.48192,-0.77809 0.72131,-1.16783 0.23172,-0.37722 0.46196,-0.75499 0.69062,-1.1335 0.23778,-0.39361 0.4755,-0.78709 0.71,-1.1821 0.15554,-0.262 0.3085,-0.5252 0.46261,-0.78782 0.19907,-0.33926 0.39821,-0.67848 0.59488,-1.01876 0.16544,-0.28623 0.32884,-0.57323 0.49256,-0.86016 0.17363,-0.30428 0.34682,-0.60883 0.51851,-0.91388 0.17183,-0.30525 0.34277,-0.61078 0.51267,-0.9168 0.16956,-0.30543 0.33773,-0.61138 0.50537,-0.91756 0.16382,-0.29918 0.32728,-0.59862 0.48928,-0.89854 0.16379,-0.30325 0.32589,-0.60697 0.48781,-0.91094 0.16885,-0.31698 0.33818,-0.63378 0.50499,-0.95153 0.11788,-0.22453 0.23357,-0.44998 0.35042,-0.6749 0.48753,-0.93828 0.96842,-1.87907 1.43826,-2.82388 0.003,-0.007 0.007,-0.0136 0.0102,-0.0205 0.17459,-0.3512 0.34564,-0.70359 0.51778,-1.05566 0.12642,-0.25858 0.25383,-0.51672 0.37892,-0.77576 0.18064,-0.37401 0.35854,-0.74903 0.53642,-1.12399 0.10807,-0.2278 0.21634,-0.45553 0.32339,-0.68368 0.17934,-0.38219 0.35701,-0.76496 0.5335,-1.14812 0.1122,-0.24361 0.22364,-0.48752 0.33471,-0.73154 0.16329,-0.35873 0.32591,-0.71764 0.48673,-1.07723 0.1112,-0.24868 0.22103,-0.4978 0.33105,-0.74688 0.17557,-0.39744 0.35072,-0.79501 0.52326,-1.19342 0.0586,-0.1352 0.1161,-0.27065 0.17431,-0.40597 0.62656,-1.45668 1.23243,-2.9197 1.81862,-4.38891 0.0813,-0.20383 0.16393,-0.40728 0.24446,-0.61132 0.16148,-0.40907 0.31961,-0.81927 0.47795,-1.22923 0.0799,-0.20693 0.16025,-0.41371 0.23936,-0.62084 0.1583,-0.41445 0.31442,-0.82958 0.46954,-1.24494 0.0777,-0.20799 0.15553,-0.41591 0.23241,-0.62412 0.15793,-0.42777 0.31387,-0.85607 0.46844,-1.28477 0.0686,-0.1904 0.13664,-0.38091 0.20462,-0.57149 0.15104,-0.4234 0.30135,-0.847 0.4491,-1.27126 0.0721,-0.20713 0.14278,-0.41459 0.21413,-0.62193 0.72648,-2.11103 1.41255,-4.2321 2.05796,-6.3632 0.0428,-0.14133 0.0862,-0.28246 0.12864,-0.42388 0.14088,-0.46936 0.27887,-0.93948 0.41583,-1.40974 0.0466,-0.16002 0.0934,-0.32 0.13957,-0.48013 0.13855,-0.48065 0.27485,-0.96185 0.40927,-1.44337 0.0366,-0.13114 0.073,-0.26234 0.10926,-0.39355 0.13772,-0.49772 0.2737,-0.99585 0.40706,-1.49451 0.0312,-0.11665 0.0619,-0.23337 0.0928,-0.35006 0.61873,-2.33256 1.19063,-4.67463 1.71376,-7.02534 0.002,-0.01 0.004,-0.02 0.007,-0.0299 0.11193,-0.50336 0.2206,-1.00723 0.32813,-1.51132 0.0314,-0.14716 0.0633,-0.29422 0.0943,-0.44143 0.10203,-0.48427 0.20126,-0.96901 0.29926,-1.45394 0.0308,-0.15272 0.0616,-0.30544 0.0921,-0.45822 0.0995,-0.49892 0.19677,-0.99825 0.29196,-1.49781 0.0194,-0.10158 0.0386,-0.20315 0.0577,-0.30476 0.10288,-0.54498 0.20441,-1.09021 0.3022,-1.63593 0.002,-0.0101 0.004,-0.0202 0.005,-0.0303 0.42771,-2.38921 0.8058,-4.78508 1.13605,-7.18647 0.0104,-0.0758 0.0211,-0.15149 0.0314,-0.22728 0.0754,-0.55355 0.14791,-1.10742 0.21814,-1.66151 0.009,-0.0733 0.0186,-0.14663 0.0278,-0.21997 0.0705,-0.56164 0.13836,-1.12347 0.20352,-1.68562 0.007,-0.0597 0.0136,-0.11937 0.0205,-0.17905 2.53537,-22.06547 0.97454,-44.5029 -4.68343,-66.10916 -0.005,-0.0196 -0.0106,-0.0392 -0.0157,-0.0588 -0.20805,-0.79333 -0.42184,-1.58557 -0.64092,-2.37661 -0.0217,-0.0782 -0.0433,-0.15641 -0.0651,-0.23459 -0.22635,-0.81295 -0.45771,-1.62469 -0.69574,-2.43507 -0.001,-0.004 -0.002,-0.008 -0.004,-0.0124 -0.73454,-2.50017 -1.52509,-4.98777 -2.37076,-7.46088 -0.0328,-0.0958 -0.0658,-0.19148 -0.0987,-0.28721 -0.24458,-0.71129 -0.49422,-1.42113 -0.748,-2.12995 -0.0426,-0.11912 -0.085,-0.23833 -0.12789,-0.35737 -0.28343,-0.7864 -0.57125,-1.57146 -0.86602,-2.35469 -0.003,-0.008 -0.006,-0.0165 -0.01,-0.0248 -0.60373,-1.60351 -1.23166,-3.19996 -1.88294,-4.7894 -0.0676,-0.16488 -0.13657,-0.32931 -0.20461,-0.49405 -0.2519,-0.60953 -0.50702,-1.21821 -0.7659,-1.82557 -0.0851,-0.19951 -0.17035,-0.39889 -0.25615,-0.59818 -0.26016,-0.60417 -0.52402,-1.20719 -0.7911,-1.80913 -0.0773,-0.17417 -0.15382,-0.34853 -0.23168,-0.52252 -8.74666,-19.54246 -21.16098,-37.86815 -37.24709,-53.95426 -15.46286,-15.46286 -32.99488,-27.53406 -51.688,-36.21517 -10e-4,-5.5e-4 -0.002,-9.2e-4 -0.004,-10e-4 -0.75227,-0.34931 -1.50665,-0.6921 -2.26261,-1.03044 -0.17399,-0.0779 -0.34836,-0.15438 -0.52253,-0.23168 -0.60193,-0.26709 -1.20495,-0.53095 -1.80913,-0.79111 -0.19928,-0.0858 -0.39867,-0.17109 -0.59818,-0.25614 -0.60025,-0.25586 -1.20164,-0.50773 -1.80401,-0.75676 -0.17678,-0.0731 -0.35326,-0.14713 -0.53021,-0.21961 -1.59273,-0.65246 -3.19278,-1.28186 -4.79964,-1.88659 -0.0272,-0.0102 -0.0546,-0.0197 -0.0818,-0.03 -0.75614,-0.28415 -1.51377,-0.56246 -2.27285,-0.83604 -0.11811,-0.0426 -0.23625,-0.0849 -0.35444,-0.12717 -0.72065,-0.25802 -1.44258,-0.51117 -2.16577,-0.75968 -0.0765,-0.0263 -0.15295,-0.0528 -0.22949,-0.0789 -2.48536,-0.85029 -4.98508,-1.6448 -7.49779,-2.38283 -0.005,-10e-4 -0.01,-0.003 -0.015,-0.004 -0.81592,-0.23958 -1.63336,-0.47311 -2.45189,-0.70085 -0.0561,-0.0156 -0.11232,-0.0309 -0.16844,-0.0464 -0.82203,-0.22784 -1.64527,-0.45023 -2.4698,-0.66613 -0.002,-4.1e-4 -0.003,-6.9e-4 -0.005,-0.001 -21.03666,-5.50823 -42.86097,-7.13329 -64.36289,-4.87454 -0.004,3.7e-4 -0.007,7.3e-4 -0.0106,10e-4 -0.57729,0.0607 -1.15414,0.12483 -1.73095,0.19113 -0.0597,0.007 -0.11937,0.0135 -0.17905,0.0205 -0.56215,0.0652 -1.12398,0.13303 -1.68562,0.20352 -0.0733,0.009 -0.14665,0.0185 -0.21997,0.0278 -0.55967,0.0709 -1.11921,0.14413 -1.67832,0.22034 -0.0537,0.007 -0.10743,0.0149 -0.16115,0.0223 -2.42803,0.33322 -4.85052,0.7156 -7.26612,1.14846 -0.58687,0.10517 -1.17344,0.21383 -1.75943,0.32485 -0.0261,0.005 -0.0522,0.01 -0.0782,0.0146 -0.0133,0.003 -0.0266,0.005 -0.0398,0.008 -0.53671,0.10208 -1.07295,0.20688 -1.60889,0.31389 -0.12355,0.0247 -0.24703,0.0496 -0.37054,0.0746 -0.51756,0.10447 -1.03469,0.21102 -1.55151,0.32009 -0.0936,0.0197 -0.18709,0.04 -0.28064,0.0599 -0.53887,0.11463 -1.07744,0.23079 -1.61546,0.35043 -0.01,0.002 -0.0193,0.004 -0.0289,0.006 -0.0395,0.009 -0.0789,0.0182 -0.1184,0.027 -1.78736,0.39904 -3.56996,0.82498 -5.34701,1.2793 -0.52053,0.13308 -1.04035,0.2696 -1.55992,0.40743 -0.1167,0.031 -0.23342,0.0616 -0.35006,0.0928 -0.49866,0.13336 -0.9968,0.26935 -1.49451,0.40706 -0.13122,0.0363 -0.26242,0.0727 -0.39356,0.10927 -0.48152,0.13441 -0.96272,0.27072 -1.44336,0.40926 -0.16014,0.0461 -0.32011,0.093 -0.48014,0.13957 -0.47026,0.13696 -0.94038,0.27495 -1.40974,0.41584 -0.14142,0.0424 -0.28255,0.0858 -0.42388,0.12863 -0.49203,0.14901 -0.98376,0.29903 -1.47479,0.45237 -1.69455,0.52918 -3.38253,1.08522 -5.06418,1.66589 -0.13064,0.0451 -0.26151,0.0894 -0.39208,0.13484 -0.46348,0.16124 -0.92613,0.32523 -1.38855,0.49038 -0.1624,0.058 -0.32482,0.11581 -0.48709,0.1743 -0.43584,0.15708 -0.87108,0.31592 -1.30595,0.47648 -0.20822,0.0769 -0.41614,0.15474 -0.62413,0.2324 -0.41535,0.15512 -0.83048,0.31124 -1.24494,0.46955 -0.20713,0.0791 -0.41391,0.15943 -0.62084,0.23935 -0.40996,0.15834 -0.82016,0.31647 -1.22923,0.47795 -0.20404,0.0805 -0.40749,0.16313 -0.61132,0.24446 -1.4692,0.58619 -2.93223,1.19206 -4.3889,1.81863 -0.13533,0.0582 -0.27077,0.11575 -0.40598,0.1743 -0.39841,0.17254 -0.79598,0.34769 -1.19342,0.52326 -0.24908,0.11002 -0.4982,0.21985 -0.74688,0.33105 -0.35958,0.16082 -0.71849,0.32344 -1.07722,0.48673 -0.24403,0.11107 -0.48794,0.22251 -0.73155,0.33471 -0.38316,0.17649 -0.76593,0.35416 -1.14812,0.5335 -0.22815,0.10705 -0.45588,0.21533 -0.68368,0.32339 -0.37496,0.17788 -0.74998,0.35578 -1.12399,0.53642 -0.25903,0.12509 -0.51718,0.2525 -0.77575,0.37892 -0.35208,0.17214 -0.70447,0.34319 -1.05567,0.51778 -0.007,0.003 -0.0136,0.007 -0.0205,0.0102 -0.13682,0.068 -0.27294,0.13806 -0.40962,0.20646 -0.80719,0.40399 -1.61185,0.81487 -2.41426,1.2318 -0.22492,0.11685 -0.45036,0.23255 -0.6749,0.35042 -0.31775,0.16681 -0.63455,0.33614 -0.95153,0.505 -0.30397,0.16191 -0.60768,0.32401 -0.91094,0.4878 -0.29992,0.162 -0.59935,0.32546 -0.89854,0.48928 -0.30618,0.16764 -0.61213,0.33582 -0.91755,0.50537 -0.30602,0.1699 -0.61155,0.34085 -0.91681,0.51267 -0.29386,0.1654 -0.58713,0.33233 -0.88027,0.49951 -0.31343,0.17876 -0.62684,0.35743 -0.93946,0.53824 -0.29258,0.16922 -0.58439,0.34057 -0.87624,0.51158 -0.29589,0.17337 -0.59246,0.34549 -0.88758,0.52071 -0.39406,0.23393 -0.78649,0.47131 -1.17917,0.70852 -0.37851,0.22867 -0.75628,0.4589 -1.1335,0.69062 -0.38974,0.23939 -0.77948,0.47865 -1.16783,0.72131 -0.2809,0.17552 -0.56064,0.3537 -0.8408,0.53093 -0.3061,0.19362 -0.61234,0.38717 -0.91755,0.58283 -0.28961,0.18567 -0.57832,0.37341 -0.86711,0.5609 -0.30257,0.19643 -0.60489,0.39315 -0.90657,0.5916 -0.2773,0.18241 -0.55407,0.36584 -0.83056,0.54992 -0.31958,0.21277 -0.6385,0.42702 -0.95702,0.64204 -0.26555,0.17927 -0.53104,0.35849 -0.79585,0.53933 -0.32364,0.22101 -0.64616,0.44426 -0.9687,0.66761 -0.25225,0.17468 -0.50519,0.34823 -0.75676,0.52435 -0.38952,0.2727 -0.77741,0.54859 -1.16529,0.82473 -0.1872,0.13328 -0.37517,0.26494 -0.56198,0.39902 -0.007,0.005 -0.0134,0.009 -0.0201,0.0143 -0.55374,0.39754 -1.10577,0.79909 -1.65603,1.20366 -0.21037,0.15467 -0.41938,0.31202 -0.62924,0.46773 -0.3464,0.257 -0.69274,0.5141 -1.03776,0.77393 -0.25768,0.19407 -0.51447,0.39011 -0.77137,0.58574 -0.31421,0.23927 -0.62827,0.47896 -0.94129,0.72058 -0.26041,0.20102 -0.52019,0.4032 -0.77977,0.60584 -0.30138,0.23527 -0.60196,0.47182 -0.9022,0.70927 -0.24935,0.1972 -0.49871,0.39435 -0.74726,0.59305 -0.34208,0.27348 -0.68293,0.54913 -1.0235,0.82546 -0.20988,0.17029 -0.41994,0.3402 -0.62923,0.51156 -0.41502,0.33981 -0.82856,0.68236 -1.2413,1.02644 -0.13292,0.11082 -0.26634,0.22054 -0.39902,0.33179 -0.55364,0.46423 -1.10552,0.93161 -1.65492,1.40352 -0.1094,0.094 -0.21782,0.18966 -0.32706,0.28394 -0.43058,0.37162 -0.8601,0.74505 -1.28805,1.12143 -0.20237,0.17798 -0.40371,0.35774 -0.60548,0.53677 -0.3465,0.30748 -0.69268,0.61574 -1.0374,0.92632 -0.20116,0.18125 -0.40163,0.3636 -0.6022,0.54593 -0.32954,0.29956 -0.65832,0.60045 -0.98623,0.90291 -0.22768,0.21003 -0.45532,0.42037 -0.68221,0.63179 -0.30386,0.28315 -0.60636,0.56833 -0.90876,0.85395 -0.22993,0.21718 -0.4601,0.43403 -0.68917,0.65263 -0.32059,0.30594 -0.63991,0.61426 -0.95883,0.92302 -0.19746,0.19117 -0.3955,0.38107 -0.59232,0.57332 -0.51813,0.50611 -1.03428,1.01528 -1.54787,1.52887 l -119.60702,119.60702 -26.19242,26.19242 -270.23277,270.232767 z m -5.85128,232.125522 c -7.83473,7.83473 -7.83473,20.44925 1e-5,28.284 7.83474,7.83474 20.44963,7.8351 28.28436,3.7e-4 l 15.79804,-15.79804 c 7.83475,-7.83474 7.83438,-20.44963 -3.6e-4,-28.28437 -7.83475,-7.83474 -20.44927,-7.83474 -28.28401,0 z m 56.87496,-56.87496 c -7.83474,7.83474 -7.83474,20.44926 0,28.284 7.83475,7.83475 20.44963,7.83511 28.284375,3.7e-4 l 15.798031,-15.79803 c 7.834744,-7.83475 7.834377,-20.44963 -3.66e-4,-28.28437 -7.834743,-7.83475 -20.44926,-7.83475 -28.28401,0 z"
       id="rect5336"
       inkscape:connector-curvature="0" />
    <path
       style="opacity:1;fill:#388138;fill-opacity:1;stroke:none;stroke-width:6.08541679;stroke-linecap:butt;stroke-miterlimit:4;stroke-dasharray:none"
       d="m -1.4427532,-72.770516 c -7.834742,7.834742 -7.834742,20.449263 1.9e-6,28.284007 7.834742,7.834742 20.4496273,7.835107 28.2843693,3.65e-4 l 182.482352,-182.482346 4.68889,-4.68889 c 7.83475,-7.83475 20.44927,-7.83476 28.28402,-1e-5 7.83474,7.83474 7.83473,20.44926 -10e-6,28.28401 l -24.74321,24.74321 -90.58599,90.585984 c -7.83474,7.834742 -7.83474,20.449263 0,28.284005 7.83475,7.834744 20.44963,7.835109 28.28437,3.67e-4 l 82.03729,-82.037286 15.33139,-15.33139 c 7.83475,-7.83475 20.44928,-7.83476 28.28402,-2e-5 7.83474,7.83475 7.83474,20.44927 -1e-5,28.28402 l -15.35515,15.35515 a 140,140 0 0 0 3.6e-4,3.7e-4 L 122.17133,29.88964 c -7.83474,7.834744 -7.83474,20.449263 0,28.284005 7.83475,7.834744 20.44963,7.83511 28.28437,3.66e-4 l 151.9255,-151.925494 35.24575,-35.245747 c 7.83474,-7.83475 20.44927,-7.83475 28.28401,-1e-5 7.83474,7.83474 7.83474,20.44927 -10e-6,28.28402 l -15.0588,15.058802 -44.89215,44.89215 c -7.83473,7.834731 -7.83474,20.449255 0,28.283997 7.83475,7.8347442 20.44964,7.8351053 28.28437,3.74e-4 L 445.08344,-123.31697 c 0.47266,-0.47266 0.91521,-0.96361 1.33083,-1.46895 a 140,140 0 0 0 1.86906,-1.73094 140,140 0 0 0 0,-197.9895 140,140 0 0 0 -197.44067,-0.5123 c -0.0118,0.0107 -0.0232,0.0222 -0.0351,0.0329 a 140,140 0 0 0 -0.51413,0.47905 140,140 0 0 0 -0.0654,0.072 c -0.0465,0.0457 -0.0949,0.0883 -0.14106,0.13448 z M 19.952956,18.970532 c -7.834742,7.834742 -7.834742,20.449262 0,28.284004 7.834743,7.834744 20.449629,7.835109 28.284371,3.67e-4 L 64.035358,31.456872 c 7.834744,-7.834743 7.834377,-20.449628 -3.67e-4,-28.2843712 -7.834742,-7.8347421 -20.449261,-7.8347439 -28.284005,0 z m 53.881536,-53.881536 c -7.834742,7.834742 -7.834742,20.449262 0,28.2840043 7.834743,7.8347437 20.449629,7.8351089 28.284368,3.669e-4 l 15.79803,-15.7980312 c 7.83475,-7.834744 7.83438,-20.449628 -3.6e-4,-28.284371 -7.83474,-7.834742 -20.449264,-7.834744 -28.284008,0 z M 112.8845,152.31323 c -7.83474,7.83474 -7.83474,20.44926 0,28.284 7.83474,7.83475 20.44963,7.83511 28.28437,3.7e-4 l 96.62034,-96.620335 c 7.83474,-7.834744 7.83437,-20.449627 -3.7e-4,-28.284371 -7.83474,-7.834742 -20.44926,-7.834744 -28.284,0 z M 243.84657,21.351162 c -7.83474,7.834742 -7.83474,20.449263 0,28.284005 7.83474,7.834744 20.44963,7.835108 28.28437,3.66e-4 l 15.79803,-15.79803 c 7.83474,-7.834744 7.83438,-20.449628 -3.7e-4,-28.2843719 -7.83474,-7.8347421 -20.44926,-7.8347439 -28.284,0 z"
       id="path5380"
       inkscape:connector-curvature="0" />
  </g>
</svg>
